# xmcd
#
# Track frame offsets:
#	150
#	15501
#	31314
#	40013
#	54819
#	69901
#	81613
#	89862
#	101482
#	111741
#	127677
#	143935
#	158643
#	170179
#	181327
#	192338
#	208641
#	225919
#	238564
#	249107
#	263376
#	276501
#	286820
#	300353
#	313476
#	321488
#
# Disc length: 4426 seconds
#
# Revision: 0
# Processed by: cddbd v1.5.2PL0 Copyright (c) Steve Scherf et al.
# Submitted via: dBpowerAMP V4.0
#
DISCID=6911481a
DTITLE=Otoniel e Oziel - Coletania Original 2
DYEAR=1900
DGENRE=Gospel
TTITLE0=Desejo missionário
TTITLE1=As boas vindas de Jesus
TTITLE2=Hoje vivo feliz
TTITLE3=Busca alegria na dor
TTITLE4=Mensagem de amor
TTITLE5=O Senhor é o meu pastor
TTITLE6=Alegria da salvação
TTITLE7=Igreja triunfante
TTITLE8=Jerusalém celestial
TTITLE9=Pobre mendigo
TTITLE10=Festa no céu
TTITLE11=Jesus é tão maravilhoso
TTITLE12=Numa cruz Jesus morreu
TTITLE13=Meu Jesus de Nazaré
TTITLE14=Barquinho seguro
TTITLE15=Palácio do meu rei
TTITLE16=Cristo não tarda voltar
TTITLE17=É Jesus
TTITLE18=Podes vir
TTITLE19=Casa de Jairo
TTITLE20=Morada feliz
TTITLE21=Pro céu eu vou
TTITLE22=Graças a Deus
TTITLE23=Eu conheci Jesus
TTITLE24=Parabéns
TTITLE25=Cidade linda
EXTD=Gospel
EXTT0=
EXTT1=
EXTT2=
EXTT3=
EXTT4=
EXTT5=
EXTT6=
EXTT7=
EXTT8=
EXTT9=
EXTT10=
EXTT11=
EXTT12=
EXTT13=
EXTT14=
EXTT15=
EXTT16=
EXTT17=
EXTT18=
EXTT19=
EXTT20=
EXTT21=
EXTT22=
EXTT23=
EXTT24=
EXTT25=
PLAYORDER=
